<svg xmlns="http://www.w3.org/2000/svg" viewBox="0 0 41.06 49.73"><defs><style>.cls-1{fill:#ff002b;}</style></defs><title>Icon Tanda tanya</title><g id="Layer_2" data-name="Layer 2"><g id="Slide_4" data-name="Slide 4"><path class="cls-1" d="M39.69,0H1.36A1.31,1.31,0,0,0,0,1.27v47.2a1.31,1.31,0,0,0,1.36,1.26H39.69a1.31,1.31,0,0,0,1.36-1.26V1.27A1.31,1.31,0,0,0,39.69,0ZM38.33,47.2H2.73V2.53h35.6Z"/><path class="cls-1" d="M15.19,12.15a9.22,9.22,0,0,1,5.1-1.34,11,11,0,0,1,6.6,1.9,6.49,6.49,0,0,1,2.63,5.63,6.36,6.36,0,0,1-1.14,3.85,13.09,13.09,0,0,1-2.56,2.43l-1.24,1a3.77,3.77,0,0,0-1.35,1.85A7.78,7.78,0,0,0,23,29.5H18.23a13.8,13.8,0,0,1,.56-4.1,7.24,7.24,0,0,1,2.35-2.61l1.28-1a4.48,4.48,0,0,0,1-1,3.54,3.54,0,0,0,.7-2.13,4.11,4.11,0,0,0-.78-2.43,3.27,3.27,0,0,0-2.85-1.1,3.14,3.14,0,0,0-2.88,1.35,5.21,5.21,0,0,0-.85,2.81H11.7Q11.91,14.25,15.19,12.15Zm2.92,19.76h5.26V37H18.11Z"/></g></g></svg>