<svg xmlns="http://www.w3.org/2000/svg" viewBox="0 0 259.06 182.31"><defs><style>.cls-1{fill:#b3b3b3;}.cls-2{fill:#f2f2f2;}.cls-3{fill:#f0d0b4;}.cls-4,.cls-7{fill:#333;}.cls-5{fill:#e4b69d;}.cls-6{fill:#ff002b;}.cls-7{opacity:0.32;}</style></defs><title>Illustration Lokasi_1</title><g id="Layer_2" data-name="Layer 2"><g id="illustration_3" data-name="illustration 3"><path class="cls-1" d="M215.44,138.2c-29.94,44.91-54.89,48.09-108.87,41.51S31.9,145.62,26,138.2c-5.21-6.54.4-10-5.66-18.2,0,0,14.56-3.28,53.87,0s82.56-9.93,108.28-42.89c21.09-27.06,50.69-32,60.61-32.93,1.12,0,2.25-.08,3.4-.2C258.08,56.31,245.38,93.29,215.44,138.2Z"/><path class="cls-2" d="M243.09,44.18c-9.92.91-39.51,5.86-60.61,32.93-25.71,33-69,46.16-108.28,42.89s-53.87,0-53.87,0a32.68,32.68,0,0,0-3.13-3.57C6.31,105.53-3.67,111.84,1.32,86S56.89,60.17,56.89,60.17C154.19,83.31,183.23,44,183.23,44,206.18,25.66,219.83,44.66,243.09,44.18Z"/><path class="cls-2" d="M215.51,85h0a2.69,2.69,0,0,0,3.14-.66L231.29,70a2.69,2.69,0,0,0-.89-4.21h0a2.69,2.69,0,0,0-3.14.66L214.62,80.78A2.69,2.69,0,0,0,215.51,85Z"/><path class="cls-2" d="M177.08,128.38h0a2.69,2.69,0,0,0,3.14-.66l12.64-14.36a2.69,2.69,0,0,0-.89-4.21h0a2.69,2.69,0,0,0-3.14.66l-12.64,14.36A2.69,2.69,0,0,0,177.08,128.38Z"/><path class="cls-2" d="M141.85,168h0a2.69,2.69,0,0,0,3.14-.66l12.64-14.36a2.69,2.69,0,0,0-.89-4.21h0a2.69,2.69,0,0,0-3.14.66L141,163.74A2.69,2.69,0,0,0,141.85,168Z"/><path class="cls-3" d="M137.24,114.1c.09-.09,25.4-11.81,36.47-18.45,14.52-8.71,17.24-8.71,18.83-16s19.28-15.2,21.77-14.06-3.18,4.54-4.08,7.26,9.76,8.62,7,13.16-8.17,7.48-15,9.62S154,127.31,144.68,138.2C144.68,138.2,126.62,125.84,137.24,114.1Z"/><path class="cls-3" d="M130,49.06s5,18-3.32,33.53S103.46,92.94,102.41,103s-6.25,13.14-5.56,16.26S62.24,116.41,74,92.89c0,0,3.52-37.37,13.91-43.59S125.32,41.48,130,49.06Z"/><path class="cls-4" d="M57.86,34.38s1.06-15.92,12.83-15.9,24.58-4.12,46-7.54,38.39,17,29,30.85c-9.16,21.24-46.38,3-44.67,13.78s-.71,14.54-1.75,12.8-5.17-14.54-7.6-10.74S89,68.69,96.22,74.93,69.17,112.27,61.6,83.88,57.86,34.38,57.86,34.38Z"/><path class="cls-5" d="M109.24,95.85s-7,.55-12.38-3.12c0,0,1.45,9.83-2.68,18,0,0,4.5.8,6.13.25a32.49,32.49,0,0,0,2.1-8.06C102.68,99.39,105.09,97.58,109.24,95.85Z"/><path class="cls-5" d="M217.27,86c-2.72,4.54-8.17,7.49-15,9.62S154,127.31,144.67,138.2a33.81,33.81,0,0,1-3.88-3.24c10-8.07,46.19-36.76,56.65-39.31,12.18-3,18.6-8.35,20-12.68A3.35,3.35,0,0,1,217.27,86Z"/><path class="cls-6" d="M71.62,99.9s7.84,14.93,29.63,8.86a64.93,64.93,0,0,1,8.93,2.22c4.56,1.51,17.79-1.48,23.84.24s1.51,6.33,3.63,10.87,8.85,13.53,6.58,17.76-26.76,15.58-35.84,11.5,1.13,27-1.81,28.35-61.92-10.43-81.88-43.55C24.68,136.16,41,105.72,71.62,99.9Z"/><path class="cls-6" d="M258.77,11C256.34-5.36,231.52-2.7,233,13.81a20.81,20.81,0,0,0,.68,3.68A87,87,0,0,0,246,44s13.06-20.31,13-29.14A27,27,0,0,0,258.77,11ZM246,17.45a3.62,3.62,0,1,1,3.62-3.62A3.62,3.62,0,0,1,246,17.45Z"/><path class="cls-7" d="M106.55,179.7c-.44.21-2.19.11-4.89-.31,1.54-4.14-4.68-21.64-1.76-28.33,2.42-5.56,5.87-1.8,7.15-.08C100.37,150.58,109.33,178.42,106.55,179.7Z"/><path class="cls-7" d="M28.52,141.69s8.64-15.44,12.72-17.25-8.07,7.65-10,20.46Z"/><path class="cls-7" d="M259.06,14.79c.05,8.83-13,29.14-13,29.14s-.75-1-1.91-2.82c17-23.63,11.57-35.57,9-39.18A12.4,12.4,0,0,1,258.77,11,26.26,26.26,0,0,1,259.06,14.79Z"/></g></g></svg>