<svg xmlns="http://www.w3.org/2000/svg" viewBox="0 0 58.14 49.73"><defs><style>.cls-1{fill:#ff002b;}</style></defs><title>Icon laporan terbaru</title><g id="Layer_2" data-name="Layer 2"><g id="Slide_4" data-name="Slide 4"><path class="cls-1" d="M38.33,25.85V2.53H2.73V47.2h35.6V44.51h2.73v4a1.31,1.31,0,0,1-1.37,1.26H1.36A1.3,1.3,0,0,1,0,48.47V1.27A1.31,1.31,0,0,1,1.36,0H39.69a1.32,1.32,0,0,1,1.37,1.27V25.85Z"/><path class="cls-1" d="M8.12,26.1h3.15l5.71,10v-10h2.8V40.5h-3L10.92,30.29V40.5H8.12Z"/><path class="cls-1" d="M29.32,30.07a4.33,4.33,0,0,1,1.84,1.57,5.23,5.23,0,0,1,.85,2.2A13.64,13.64,0,0,1,32.1,36H24.35a2.55,2.55,0,0,0,1.11,2.25,2.83,2.83,0,0,0,1.53.4,2.16,2.16,0,0,0,2.12-1.22H32a3.48,3.48,0,0,1-1,1.92,5.17,5.17,0,0,1-4,1.55,5.8,5.8,0,0,1-3.75-1.31,5.16,5.16,0,0,1-1.62-4.26A5.77,5.77,0,0,1,23,31a5.13,5.13,0,0,1,3.81-1.48A6.05,6.05,0,0,1,29.32,30.07Zm-4.16,2.4a2.89,2.89,0,0,0-.74,1.65h4.79a2.32,2.32,0,0,0-.74-1.68,2.44,2.44,0,0,0-1.65-.57A2.21,2.21,0,0,0,25.16,32.47Z"/><path class="cls-1" d="M38.53,29.85h2.82L43,37.52l1.66-7.67h2.9L44.45,40.5H41.59l-1.67-7.75L38.23,40.5H35.34l-3-10.64h3L37,37.49Z"/><path class="cls-1" d="M51.22,37.1a1.85,1.85,0,0,0,.38,1.05,2.59,2.59,0,0,0,1.92.56,2.94,2.94,0,0,0,1.31-.24A.82.82,0,0,0,54.94,37,16,16,0,0,0,52,36.18a6.05,6.05,0,0,1-2.56-1.12,2.44,2.44,0,0,1-.74-1.91,3.32,3.32,0,0,1,1.16-2.53,4.67,4.67,0,0,1,3.26-1.06,6,6,0,0,1,3.25.8,3.41,3.41,0,0,1,1.44,2.75H55.06a1.64,1.64,0,0,0-.3-.85,1.91,1.91,0,0,0-1.57-.57,2.26,2.26,0,0,0-1.3.28.81.81,0,0,0-.39.66.73.73,0,0,0,.41.69,17.85,17.85,0,0,0,2.91.77,5.33,5.33,0,0,1,2.49,1.18,2.68,2.68,0,0,1,.82,2A3.23,3.23,0,0,1,57,39.86a5.55,5.55,0,0,1-3.65,1A5.5,5.5,0,0,1,49.6,39.8a3.44,3.44,0,0,1-1.2-2.7Z"/></g></g></svg>