<svg xmlns="http://www.w3.org/2000/svg" viewBox="0 0 195.74 57.71"><defs><style>.cls-1{font-size:39.79px;fill:#231f20;font-family:Baloo-Regular, Baloo;}.cls-2{letter-spacing:-0.06em;}.cls-3{letter-spacing:0em;}.cls-4{fill:#414042;}.cls-5,.cls-6{fill:#ff002b;}.cls-5{letter-spacing:-0.04em;}.cls-7{fill:#c8002b;}.cls-8{fill:#fff;}</style></defs><title>Logo</title><g id="Layer_2" data-name="Layer 2"><g id="Layer_1-2" data-name="Layer 1"><text class="cls-1" transform="translate(56.38 36.86)"><tspan class="cls-2">T</tspan><tspan class="cls-3" x="19.74" y="0">ell</tspan><tspan class="cls-4" x="63.87" y="0"> </tspan><tspan class="cls-5" x="71.83" y="0">Y</tspan><tspan class="cls-6" x="92.88" y="0">ou</tspan></text><path class="cls-6" d="M5.09,37.71s-5-5.55-4-11.7c.51-3.88-2.34-5.2-.42-9.24s7.47-3.38,9.48-6.13,11.09-16.9,29.2-7.39c8.07,4.05,1,14.07-2.68,17.69s1.7,9.7-.83,13.15-5.25,8.07-15.24,7.07C16.54,40.41,11,43.92,5.09,37.71Z"/><path class="cls-7" d="M8.79,35.78A6.19,6.19,0,0,0,16.54,37a15.77,15.77,0,0,0,2.41-1.91c2.28-2.08,7.91-1.72,11-4.55S29.47,23.95,32.52,20s3.18-6.69.63-9.49-11.52-3.9-13.87,0S14,13.82,11.16,14.68s-4.58,4.75-3.31,9.46a6,6,0,0,1-.29,4.73,5.59,5.59,0,0,0,.83,6.48Z"/><path class="cls-8" d="M12.39,30.78a5.18,5.18,0,0,1,.24-4.93c1.31-2.52-1.63-4.39,1.26-6.46s5.65-.3,9.65-3.81c2.48-2.26,5.89,1,3.05,4.36s-3.39,5-3.49,7C23.48,30.17,16,34.69,12.39,30.78Z"/></g></g></svg>