<svg xmlns="http://www.w3.org/2000/svg" xmlns:xlink="http://www.w3.org/1999/xlink" viewBox="0 0 250.06 146.6"><defs><style>.cls-1{fill:none;}.cls-2{fill:#f2f2f2;}.cls-3{fill:#e6e6e6;}.cls-4{fill:#ccc;}.cls-5{fill:#1a1a1a;}.cls-6{fill:#f0d0b4;}.cls-11,.cls-7{fill:#333;}.cls-8{fill:#e4b69d;}.cls-9{clip-path:url(#clip-path);}.cls-10{fill:#ff002b;}.cls-11{opacity:0.32;}</style><clipPath id="clip-path" transform="translate(-1.42)"><path class="cls-1" d="M15.25,51.64S-4,63,.74,79.29s44.64,55.86,90.82,65.32S197.49,127.18,222.24,108c14.09-10.93,42.68-43.1,18.35-72.13s-76,9.79-112.67,22S40.43,39.69,15.25,51.64Z"/></clipPath></defs><title>Illustration laporan</title><g id="Layer_2" data-name="Layer 2"><g id="Slide_4" data-name="Slide 4"><path class="cls-2" d="M16.67,51.64S-2.53,63,2.16,79.29,46.8,135.15,93,144.61c44.36,9,105.93-17.43,130.68-36.63C237.75,97,266.34,64.87,242,35.85s-76,9.79-112.67,22S41.85,39.69,16.67,51.64Z" transform="translate(-1.42)"/><rect class="cls-3" x="146.98" width="59.32" height="95.6" rx="5.12" ry="5.12"/><rect class="cls-4" x="155.09" y="67" width="40.97" height="11.95" rx="5.12" ry="5.12"/><rect class="cls-4" x="155.09" y="39.69" width="40.97" height="11.95" rx="5.12" ry="5.12"/><polygon class="cls-5" points="185.39 45.24 182.41 48.23 180.99 45.64 185.39 45.24"/><path class="cls-6" d="M156.79,53.3a6.05,6.05,0,0,0-5.92,4.94A19.37,19.37,0,0,0,148.48,70s8.46-7.68,8.46-11.1S156.79,53.3,156.79,53.3Z" transform="translate(-1.42)"/><path class="cls-7" d="M183.83,48.23,180,52.07l-8.71,3.11-22,10.46L139,70c-5.12-1.71-2.56-5.12-2.56-5.12l15.87-7.3,14.43-6.79,10.67-4.69,5-.45Z" transform="translate(-1.42)"/><path class="cls-6" d="M112,30.77s7.53,13.21,4,27.17S99.74,70.74,100.9,78.88s-2.33,11.64-1.16,14S71.81,97.5,76.47,76.56c0,0-4.65-30.25,2.33-37.23S106.78,25.7,112,30.77Z" transform="translate(-1.42)"/><path class="cls-7" d="M52,33.51s-2.33-12.8,7-15.13S77.63,10.24,93.92,3.25,127.66,9.07,123,21.87c-3,18.62-36.07,11.64-32.58,19.78s2.33,11.64,1.16,10.47-7-10.47-8.14-7,0,9.31,7,12.8-14,34.91-25.6,14S52,33.51,52,33.51Z" transform="translate(-1.42)"/><path class="cls-6" d="M139,127.18S146.7,108.4,151,100.72s9.39-19.63,11.95-21.34,8.54-6.83,8.54-11.1,4.27-6.83,3.41-8.54S173.16,58,172.31,58s-.85-2.56-2.56-2.56-2.9-3.49-4.85-3-3.33-1.24-4.54-1.24c-1.71,0-5.12,2.56-6,6.83s-3.36,7.5-4.24,8-1.73,1.76-1.73,5.84-10.75,27.28-23.73,35.31C124.68,107.2,116.82,123.77,139,127.18Z" transform="translate(-1.42)"/><path class="cls-8" d="M104.88,71.89s-5.44,1.83-10.41,0c0,0,3.1,7.49,1.47,14.8,0,0,3.72-.26,4.9-1a26.49,26.49,0,0,0,.05-6.79C100.4,76,101.95,74.09,104.88,71.89Z" transform="translate(-1.42)"/><path class="cls-8" d="M151.35,64.59c0,1.19-.22,5.91-4,17.55-4.27,13.37-22.87,31.36-24,32.48a16.37,16.37,0,0,1,1.29-7.64c13-8,23.73-31.24,23.73-35.31s.85-5.32,1.73-5.83A5.53,5.53,0,0,0,151.35,64.59Z" transform="translate(-1.42)"/><rect class="cls-4" x="155.09" y="12.38" width="40.97" height="11.95" rx="5.12" ry="5.12"/><g class="cls-9"><path class="cls-10" d="M138.08,123.42c.46.69,4.6,12.29-4.38,21.37,0,0-20.86,3.6-37.75.68Z" transform="translate(-1.42)"/><path class="cls-10" d="M76.07,78.93s11.16,9.29,24.46,7.22c2.21.49,22.69,15,27,26.09s12.8,8.54,11.1,14.51S119.81,154.07,85.67,143s-45.24-22.19-45.24-22.19S46.1,92.77,76.07,78.93Z" transform="translate(-1.42)"/><path class="cls-11" d="M101.88,146.07s-5.54-15.47-3-25.71c0,0,7.68,21.88,19.74,26" transform="translate(-1.42)"/><path class="cls-11" d="M51.87,128.65s3.5-12.57,7.76-14.28-4.35,9.73-3.88,16.39" transform="translate(-1.42)"/></g></g></g></svg>