<svg xmlns="http://www.w3.org/2000/svg" xmlns:xlink="http://www.w3.org/1999/xlink" viewBox="0 0 301.01 144.22"><defs><style>.cls-1{fill:#f2f2f2;}.cls-2{clip-path:url(#clip-path);}.cls-3{fill:#ff002b;}.cls-4{fill:#ccc;}.cls-5{fill:#b3b3b3;}.cls-6{fill:#999;}.cls-7{fill:#f0d0b4;}.cls-11,.cls-8{fill:#333;}.cls-9{fill:#fff;}.cls-10{fill:#4d4d4d;}.cls-11{opacity:0.32;}.cls-12{fill:#e4b69d;}</style><clipPath id="clip-path"><path class="cls-1" d="M15.25,54.35C-10.07,73.89-2.53,114,28.08,123.23c16.65,5,37.62,9.34,55.8,6.88,37.09-5,73.68-3,110.26,10.85s98-19.33,93.87-42.8-51.77-18.64-84.9-35.89C178,49.22,61.33,18.79,15.25,54.35Z"/></clipPath></defs><title>Illustration Foto_1</title><g id="Layer_2" data-name="Layer 2"><g id="illustration_2" data-name="illustration 2"><path class="cls-1" d="M15.25,54.35C-10.07,73.89-2.53,114,28.08,123.23c16.65,5,37.62,9.34,55.8,6.88,37.09-5,73.68-3,110.26,10.85s98-19.33,93.87-42.8-51.77-18.64-84.9-35.89C178,49.22,61.33,18.79,15.25,54.35Z"/><g class="cls-2"><path class="cls-3" d="M107.82,132.87C80.8,66.7,36.21,80.42,36.21,80.42s-17.85-2.15-23.44,27.63S9,132.87,9,132.87Z"/><path class="cls-4" d="M133.5,142.54s9.66-24.44,30.83-34.69,14.27-17.2,46.48-26.93,42.34-4.66,50.39-15.07,29.91,4.55,25.2,27.65,30.72,32,5.41,48.87Z"/><path class="cls-5" d="M174.46,142.36s16.57-32.43,28.07-31.65,24.85-8.95,39.58-13.58,28.53,4.17,22.55,18.07a51.32,51.32,0,0,0-3.45,27.16Z"/><path class="cls-6" d="M205.75,142.36s.92-3.95,11.5-11.61,17.49-16.47,22.55-14.62-.92,24.66,3.68,26.23Z"/></g><path class="cls-7" d="M77.63,29.34s7.49,13.14,4,27-16.21,12.73-15,20.84S64.28,88.78,65.44,91.1,37.66,95.73,42.29,74.89c0,0-4.63-30.1,2.32-37S72.45,24.3,77.63,29.34Z"/><path class="cls-8" d="M18,32.06s-2.32-12.73,6.95-15S43.45,8.91,59.65,2,93.22,7.75,88.59,20.49C85.59,39,52.71,32.06,56.18,40.17s2.32,11.58,1.16,10.42-6.95-10.42-8.1-6.95,0,9.26,6.95,12.73S42.29,91.1,30.71,70.26,18,32.06,18,32.06Z"/><rect class="cls-8" x="140.36" y="8.14" width="21.78" height="40.16" rx="2.95" ry="2.95" transform="translate(14.98 -43.21) rotate(17.09)"/><rect class="cls-9" x="141.92" y="11.58" width="19.06" height="31.99" transform="translate(14.79 -43.29) rotate(17.09)"/><rect class="cls-10" x="138.32" y="35.54" width="19.06" height="7.49" transform="translate(18.08 -41.72) rotate(17.09)"/><circle class="cls-6" cx="148.11" cy="38.43" r="2.04" transform="translate(67.85 168.71) rotate(-72.91)"/><path class="cls-7" d="M153.51,48.58s-.61-2.27-1.62-4.95-4.15-4.83-4.15-4.83a1.86,1.86,0,0,0-2.41.23c-1.17,1.15,1.41,6.69,2.73,8.7C148.06,47.74,152.27,49.71,153.51,48.58Z"/><path class="cls-7" d="M152.73,44.95s4.08,0,6.06-5.71l3.58-10.13s4.87,16.35,2.32,24.39a58.5,58.5,0,0,1-8.86,18c-1.22,1.6-2.39,3.23-3.49,4.92-6.67,10.23-35.54,36.82-35.54,36.82l-15-17.72s46.3-29.08,46-37.22a89.73,89.73,0,0,1,0-10.56S150.32,44.12,152.73,44.95Z"/><path class="cls-3" d="M70.76,96.92l15.33,21.46h22.69A25.78,25.78,0,0,0,121,115.3h0a4.68,4.68,0,0,0,1.25-7.26,50.86,50.86,0,0,0-9-8c-6.39-4.19-2.64-9.92-6.61-10.36S86,95.38,69.88,85.24C69.88,85.24,64.5,88.14,70.76,96.92Z"/><path class="cls-4" d="M240.39,74.36s18.17-2,23.11-10.61,29.59,2.55,22.9,29.74C286.4,93.49,245.94,89.48,240.39,74.36Z"/><path class="cls-3" d="M41.79,79.49s8.87,6.65,17.57,5.75,7.23-1.58,7.23-1.58,6.88,18.23-14.59,13S41.79,79.49,41.79,79.49Z"/><path class="cls-11" d="M98.83,128.48S96,120,89.35,118.38s-13.58-10.67-13.58-16.57c0,0,10.74,14.27,17.33,15.42a69.12,69.12,0,0,0,7.87,1.15l4.76,9.63Z"/><path class="cls-12" d="M70.56,70.25s-5.41,1.82-10.36,0c0,0,3.09,7.45,1.47,14.72,0,0,3.7-.26,4.87-1a26.35,26.35,0,0,0,.05-6.75C66.1,74.33,67.64,72.43,70.56,70.25Z"/><path class="cls-4" d="M143.48,34a9.8,9.8,0,0,1,4.32-6.25c3.79-2.5,7.4-5.8,7.17-7s1.76-1.38,2.61-.46,2.61,2.68,1.92,5A3.54,3.54,0,0,0,161,29l-3,9.47Z"/><path class="cls-5" d="M146.33,34.88a6.61,6.61,0,0,1,2.91-4.21c2.56-1.68,5-3.91,4.83-4.73s1.19-.93,1.76-.31,1.76,1.81,1.29,3.36a8.38,8.38,0,0,0,.31,3.5A5.84,5.84,0,0,1,156.7,37l-.58.91Z"/><path class="cls-6" d="M148.55,35.57a3.82,3.82,0,0,1,1.68-2.44c1.48-1,2.88-2.26,2.79-2.74s.69-.54,1-.18a2,2,0,0,1,.75,1.94,4.84,4.84,0,0,0,.18,2,3.38,3.38,0,0,1-.42,2.6l-.33.53Z"/><path class="cls-11" d="M14.95,116.43S17.41,104,19,101.81s-1.88,8.56-2,16.13Z"/></g></g></svg>